<?xml version="1.0" encoding="UTF-8"?>
<!DOCTYPE svg PUBLIC "-//W3C//DTD SVG 1.1//EN" "http://www.w3.org/Graphics/SVG/1.1/DTD/svg11.dtd">
<svg xmlns="http://www.w3.org/2000/svg" version="1.1" width="1024px" height="1024px" style="shape-rendering:geometricPrecision; text-rendering:geometricPrecision; image-rendering:optimizeQuality; fill-rule:evenodd; clip-rule:evenodd" xmlns:xlink="http://www.w3.org/1999/xlink">
<g><path style="opacity:0.968" fill="#0049ad" d="M 175.5,397.5 C 187.167,397.5 198.833,397.5 210.5,397.5C 210.333,430.168 210.5,462.835 211,495.5C 225.43,468.203 247.93,457.37 278.5,463C 284.132,464.211 289.466,466.211 294.5,469C 295.574,469.739 296.241,470.739 296.5,472C 292.891,480.052 288.891,487.885 284.5,495.5C 269.111,486.806 256.611,489.806 247,504.5C 242.008,520.351 247.175,531.517 262.5,538C 264.667,538.167 266.833,538.333 269,538.5C 274.772,538.119 280.272,536.953 285.5,535C 290.295,542.741 293.795,550.908 296,559.5C 279.586,567.893 262.419,569.726 244.5,565C 228.792,559.291 217.626,548.791 211,533.5C 210.5,543.828 210.334,554.161 210.5,564.5C 198.833,564.5 187.167,564.5 175.5,564.5C 175.665,561.15 175.498,557.817 175,554.5C 161.798,567.009 146.298,570.842 128.5,566C 116.439,562.551 107.273,555.384 101,544.5C 98.3218,553.178 92.8218,559.345 84.5,563C 69.4283,567.697 54.095,568.697 38.5,566C 29.8248,563.83 22.1581,559.83 15.5,554C 20.1393,545.876 25.1393,538.043 30.5,530.5C 36.9526,535.06 43.9526,538.56 51.5,541C 56.0722,542.076 60.2389,541.243 64,538.5C 64.9782,535.331 64.4782,532.497 62.5,530C 52.3318,526.283 42.6652,521.616 33.5,516C 20.2313,502.902 19.0647,488.736 30,473.5C 40.6077,465.02 52.7743,461.02 66.5,461.5C 78.0892,461.517 89.0892,464.017 99.5,469C 99.9574,469.414 100.291,469.914 100.5,470.5C 96.961,477.745 93.2944,484.911 89.5,492C 82.155,489.284 74.4883,487.45 66.5,486.5C 63.7414,486.542 61.0747,487.042 58.5,488C 55.9659,490.587 55.9659,493.253 58.5,496C 65.6803,499.06 73.0136,501.727 80.5,504C 84.9287,506.102 89.0954,508.602 93,511.5C 96.8054,477.021 115.972,460.521 150.5,462C 160.031,463.016 168.197,466.85 175,473.5C 175.5,448.169 175.667,422.836 175.5,397.5 Z M 150.5,491.5 C 172.089,493.997 179.589,505.664 173,526.5C 163.505,538.495 152.005,540.662 138.5,533C 129.292,523.043 128.125,512.209 135,500.5C 139.29,495.779 144.457,492.779 150.5,491.5 Z"/></g>
<g><path style="opacity:0.969" fill="#0049ad" d="M 401.5,397.5 C 413.5,397.5 425.5,397.5 437.5,397.5C 437.333,422.502 437.5,447.502 438,472.5C 450.899,462.452 465.399,459.285 481.5,463C 496.787,466.895 507.621,476.062 514,490.5C 528.304,464.389 549.804,455.889 578.5,465C 583.214,467.051 587.381,469.885 591,473.5C 591.498,470.518 591.665,467.518 591.5,464.5C 603.167,464.5 614.833,464.5 626.5,464.5C 626.5,497.833 626.5,531.167 626.5,564.5C 614.833,564.5 603.167,564.5 591.5,564.5C 591.665,561.15 591.498,557.817 591,554.5C 577.798,567.009 562.298,570.842 544.5,566C 530.631,561.466 520.464,552.633 514,539.5C 502.453,561.524 484.286,570.691 459.5,567C 450.557,565.382 443.057,561.215 437,554.5C 436.502,557.817 436.335,561.15 436.5,564.5C 424.833,564.5 413.167,564.5 401.5,564.5C 401.666,554.828 401.5,545.161 401,535.5C 391.82,553.188 377.32,563.688 357.5,567C 336.335,570.538 317.335,565.872 300.5,553C 283.562,534.541 280.062,513.708 290,490.5C 305.207,468.299 326.374,458.799 353.5,462C 375.144,464.556 390.977,475.389 401,494.5C 401.5,462.168 401.667,429.835 401.5,397.5 Z M 341.5,491.5 C 359.615,492.114 368.115,501.447 367,519.5C 360.396,536.818 348.563,541.651 331.5,534C 318.503,520.865 318.836,507.865 332.5,495C 335.571,493.704 338.571,492.538 341.5,491.5 Z M 456.5,491.5 C 474.631,492.795 482.797,502.461 481,520.5C 476.66,533.811 467.493,539.311 453.5,537C 439.705,532.495 434.205,522.995 437,508.5C 440.306,499.019 446.806,493.353 456.5,491.5 Z M 566.5,491.5 C 588.089,493.997 595.589,505.664 589,526.5C 579.505,538.495 568.005,540.662 554.5,533C 545.292,523.043 544.125,512.209 551,500.5C 555.29,495.779 560.457,492.779 566.5,491.5 Z"/></g>
<g><path style="opacity:0.975" fill="#0049ad" d="M 688.5,461.5 C 705.617,459.985 720.117,465.319 732,477.5C 735.52,482.235 737.52,487.568 738,493.5C 738.5,517.164 738.667,540.831 738.5,564.5C 726.833,564.5 715.167,564.5 703.5,564.5C 703.929,543.46 703.429,522.46 702,501.5C 695.897,489.042 686.73,486.208 674.5,493C 670.072,496.092 667.239,500.259 666,505.5C 665.5,525.164 665.333,544.831 665.5,564.5C 653.833,564.5 642.167,564.5 630.5,564.5C 630.5,531.167 630.5,497.833 630.5,464.5C 642.167,464.5 653.833,464.5 665.5,464.5C 665.335,467.85 665.502,471.183 666,474.5C 672.206,467.765 679.706,463.432 688.5,461.5 Z"/></g>
<g><path style="opacity:0.967" fill="#0049ad" d="M 951.5,461.5 C 965.782,460.486 978.782,463.986 990.5,472C 995.709,477.206 999.209,483.373 1001,490.5C 1001.5,515.164 1001.67,539.831 1001.5,564.5C 989.833,564.5 978.167,564.5 966.5,564.5C 966.667,544.164 966.5,523.831 966,503.5C 961.992,491.246 953.826,487.079 941.5,491C 935.939,493.562 932.106,497.728 930,503.5C 929.5,523.831 929.333,544.164 929.5,564.5C 917.5,564.5 905.5,564.5 893.5,564.5C 893.667,539.164 893.5,513.831 893,488.5C 879.412,513.341 866.079,538.341 853,563.5C 844.579,564.649 836.079,564.816 827.5,564C 809.961,531.087 792.294,498.254 774.5,465.5C 788.5,464.167 802.5,464.167 816.5,465.5C 824.059,482.952 831.892,500.285 840,517.5C 847.559,500.048 855.392,482.715 863.5,465.5C 885.49,464.5 907.49,464.167 929.5,464.5C 929.335,467.518 929.502,470.518 930,473.5C 936.287,467.777 943.453,463.777 951.5,461.5 Z"/></g>
<g><path style="opacity:0.951" fill="#0049ad" d="M 757.5,522.5 C 777.857,521.688 787.023,531.354 785,551.5C 779.054,565.886 768.554,570.72 753.5,566C 741.71,559.384 737.877,549.551 742,536.5C 745.466,529.864 750.632,525.197 757.5,522.5 Z"/></g>
</svg>
