<?xml version="1.0" encoding="UTF-8"?>
<!DOCTYPE svg PUBLIC "-//W3C//DTD SVG 1.1//EN" "http://www.w3.org/Graphics/SVG/1.1/DTD/svg11.dtd">
<svg xmlns="http://www.w3.org/2000/svg" version="1.1" width="512px" height="512px" style="shape-rendering:geometricPrecision; text-rendering:geometricPrecision; image-rendering:optimizeQuality; fill-rule:evenodd; clip-rule:evenodd" xmlns:xlink="http://www.w3.org/1999/xlink">
<g><path style="opacity:0.95" fill="#0049ad" d="M 183.5,227.5 C 182.662,227.842 182.328,228.508 182.5,229.5C 181.844,230.278 181.011,230.944 180,231.5C 173.209,228.084 166.709,228.251 160.5,232C 152.055,241.338 152.721,250.005 162.5,258C 168.596,260.285 174.429,259.785 180,256.5C 180.852,257.571 181.685,258.571 182.5,259.5C 182.328,260.492 182.662,261.158 183.5,261.5C 184.881,265.264 186.547,268.931 188.5,272.5C 184.673,275.391 180.34,277.224 175.5,278C 156.724,281.36 142.557,274.86 133,258.5C 132.501,264.491 132.334,270.491 132.5,276.5C 124.833,276.5 117.167,276.5 109.5,276.5C 109.66,274.801 109.494,273.134 109,271.5C 100.613,278.091 91.1135,280.258 80.5,278C 72.4646,276.065 66.298,271.565 62,264.5C 58.189,272.827 51.689,277.327 42.5,278C 32.5693,279.303 22.9026,278.303 13.5,275C 10.7644,273.638 8.4311,271.804 6.5,269.5C 9.17813,264.133 12.3448,259.133 16,254.5C 21.0858,257.792 26.5858,260.126 32.5,261.5C 35.2812,261.393 37.2812,260.059 38.5,257.5C 38.0814,256.328 37.4147,255.328 36.5,254.5C 29.8878,251.861 23.5545,248.694 17.5,245C 8.06302,234.721 8.39635,224.721 18.5,215C 32.9514,207.581 47.2847,207.747 61.5,215.5C 59.0879,220.659 56.4212,225.659 53.5,230.5C 47.6056,226.977 41.2723,225.81 34.5,227C 33.1667,228.667 33.1667,230.333 34.5,232C 39.6783,234.393 45.0116,236.393 50.5,238C 52.1667,239.167 53.8333,240.333 55.5,241.5C 60.7237,215.729 76.057,205.895 101.5,212C 104.249,213.123 106.749,214.623 109,216.5C 109.5,200.503 109.667,184.503 109.5,168.5C 117.167,168.5 124.833,168.5 132.5,168.5C 132.333,189.169 132.5,209.836 133,230.5C 143.125,213.526 157.958,207.026 177.5,211C 181.263,211.92 184.763,213.42 188,215.5C 186.834,219.521 185.334,223.521 183.5,227.5 Z M 92.5,229.5 C 108.294,230.805 113.127,238.805 107,253.5C 101.31,258.691 94.8099,259.858 87.5,257C 78.1667,248.667 78.1667,240.333 87.5,232C 89.3146,231.243 90.9812,230.41 92.5,229.5 Z"/></g>
<g><path style="opacity:0.955" fill="#0049ad" d="M 183.5,261.5 C 183.672,260.508 183.338,259.842 182.5,259.5C 181.178,254.417 180.178,249.251 179.5,244C 180.234,239.091 181.234,234.257 182.5,229.5C 183.338,229.158 183.672,228.492 183.5,227.5C 195.635,212.397 211.302,206.897 230.5,211C 241.475,214.059 249.641,220.559 255,230.5C 255.5,209.836 255.667,189.169 255.5,168.5C 263.167,168.5 270.833,168.5 278.5,168.5C 278.333,184.503 278.5,200.503 279,216.5C 291.479,207.922 304.312,207.422 317.5,215C 321.752,218.581 325.252,222.748 328,227.5C 338.77,210.545 353.603,205.712 372.5,213C 374.09,214.046 375.59,215.213 377,216.5C 377.494,214.866 377.66,213.199 377.5,211.5C 385.5,211.5 393.5,211.5 401.5,211.5C 401.5,233.167 401.5,254.833 401.5,276.5C 393.833,276.5 386.167,276.5 378.5,276.5C 378.662,274.473 378.495,272.473 378,270.5C 374.547,274.145 370.38,276.645 365.5,278C 349.146,281.15 336.812,275.65 328.5,261.5C 316.854,278.991 301.52,283.157 282.5,274C 278.935,269.276 277.601,270.11 278.5,276.5C 270.833,276.5 263.167,276.5 255.5,276.5C 255.666,270.491 255.499,264.491 255,258.5C 247.325,272.676 235.325,279.343 219,278.5C 204.048,279.106 192.215,273.439 183.5,261.5 Z M 216.5,229.5 C 229.974,230.466 235.141,237.466 232,250.5C 227.968,258.037 221.802,260.537 213.5,258C 205.095,253.461 202.595,246.628 206,237.5C 208.539,233.49 212.039,230.824 216.5,229.5 Z M 289.5,229.5 C 303.116,230.271 308.616,237.271 306,250.5C 300.284,258.976 292.784,260.809 283.5,256C 277.896,249.803 277.063,242.969 281,235.5C 283.322,232.605 286.155,230.605 289.5,229.5 Z M 361.5,229.5 C 374.974,230.466 380.141,237.466 377,250.5C 372.968,258.037 366.802,260.537 358.5,258C 350.095,253.461 347.595,246.628 351,237.5C 353.539,233.49 357.039,230.824 361.5,229.5 Z"/></g>
<g><path style="opacity:0.956" fill="#0049ad" d="M 441.5,209.5 C 450.165,209.222 458.165,211.388 465.5,216C 468.531,218.559 470.698,221.726 472,225.5C 473.442,242.444 473.942,259.444 473.5,276.5C 465.833,276.5 458.167,276.5 450.5,276.5C 450.667,263.829 450.5,251.162 450,238.5C 447.007,228.273 440.841,225.773 431.5,231C 429.383,232.731 427.883,234.898 427,237.5C 426.5,250.496 426.333,263.496 426.5,276.5C 418.833,276.5 411.167,276.5 403.5,276.5C 403.5,254.833 403.5,233.167 403.5,211.5C 411.167,211.5 418.833,211.5 426.5,211.5C 426.338,213.527 426.505,215.527 427,217.5C 431.119,213.361 435.952,210.694 441.5,209.5 Z"/></g>
<g><path style="opacity:0.93" fill="#0049ad" d="M 483.5,249.5 C 501.293,248.748 507.126,256.748 501,273.5C 493.891,279.54 486.391,280.04 478.5,275C 471.948,264.715 473.614,256.215 483.5,249.5 Z"/></g>
</svg>
