<svg version="1.0" xmlns="http://www.w3.org/2000/svg"
 width="500.000000pt" height="500.000000pt" viewBox="0 0 500.000000 500.000000"
 preserveAspectRatio="xMidYMid meet">

<g transform="translate(0.000000,500.000000) scale(0.100000,-0.100000)"
fill="#000000" stroke="none">
<path d="M1080 3100 l0 -239 -51 31 c-44 28 -61 32 -138 36 -110 5 -168 -17
-236 -89 -50 -54 -69 -91 -86 -169 l-11 -50 -41 24 c-23 13 -72 33 -109 45
-71 24 -94 41 -84 66 11 29 56 38 116 22 30 -8 63 -17 72 -21 14 -6 24 6 52
62 l35 70 -42 18 c-54 22 -229 31 -284 14 -95 -30 -153 -98 -153 -180 0 -89
53 -147 182 -200 33 -14 67 -35 75 -47 13 -19 12 -24 -6 -42 -30 -30 -68 -26
-145 13 l-67 33 -40 -68 c-23 -37 -38 -73 -34 -79 3 -6 28 -21 54 -34 164 -84
418 -36 456 85 6 18 11 16 56 -31 27 -28 68 -59 91 -69 101 -44 216 -34 293
25 l45 34 0 -35 0 -35 105 0 105 0 0 108 1 107 21 -40 c33 -63 119 -140 185
-166 76 -29 176 -31 262 -5 34 11 65 25 67 31 3 6 -9 42 -26 79 -28 61 -33 67
-53 61 -12 -4 -46 -10 -75 -12 -45 -4 -59 -1 -91 20 -91 60 -93 195 -4 261 35
26 109 32 154 13 l36 -15 37 75 36 74 -47 22 c-40 18 -66 22 -158 22 -100 0
-115 -2 -160 -27 -66 -34 -128 -95 -159 -155 l-25 -48 -1 323 0 322 -105 0
-105 0 0 -240z m-63 -370 c88 -53 84 -208 -6 -255 -42 -21 -119 -19 -157 4
-56 34 -81 129 -50 189 16 30 53 66 76 75 35 13 106 6 137 -13z"/>
<path d="M2510 3018 l-1 -323 -25 48 c-33 63 -93 120 -162 154 -53 26 -66 28
-177 28 -116 0 -123 -1 -187 -33 -133 -65 -194 -168 -186 -311 10 -165 119
-274 305 -303 123 -19 262 20 341 95 19 18 47 55 63 82 l29 50 0 -107 0 -108
105 0 105 0 0 37 0 36 23 -20 c12 -11 42 -31 67 -44 56 -29 173 -31 234 -5 55
23 118 77 141 120 22 41 31 45 40 16 10 -32 93 -110 138 -130 101 -43 215 -33
292 26 l45 34 0 -35 0 -35 105 0 105 0 0 315 0 315 -105 0 -105 0 0 -30 0 -29
-51 31 c-44 28 -61 32 -138 36 -113 5 -170 -17 -241 -95 -28 -30 -50 -59 -50
-64 0 -18 -16 -8 -33 21 -29 48 -79 92 -135 118 -48 21 -64 24 -142 20 -78 -4
-95 -8 -139 -36 l-51 -31 0 239 0 240 -105 0 -105 0 0 -322z m-289 -291 c63
-42 86 -124 53 -193 -23 -49 -70 -74 -138 -74 -50 0 -60 4 -92 33 -72 66 -63
188 19 237 45 28 115 26 158 -3z m746 -19 c29 -29 37 -46 40 -85 10 -98 -46
-163 -140 -163 -93 0 -147 54 -147 145 0 56 21 96 66 127 23 15 42 18 87 15
51 -3 62 -8 94 -39z m670 22 c88 -53 84 -208 -6 -255 -42 -21 -119 -19 -157 4
-56 34 -81 129 -50 189 16 30 53 66 76 75 35 13 106 6 137 -13z"/>
<path d="M4255 2913 c-16 -9 -45 -27 -62 -41 l-33 -24 0 36 0 36 -105 0 -105
0 0 -315 0 -315 105 0 105 0 0 183 c0 205 7 233 70 275 41 28 98 26 132 -5 42
-37 48 -72 48 -268 l0 -185 105 0 105 0 0 230 c0 255 -4 277 -62 338 -64 65
-229 95 -303 55z"/>
<path d="M4713 2531 c-122 -77 -75 -255 68 -255 133 0 186 149 85 243 -36 33
-110 39 -153 12z"/>
</g>
</svg>
